:SAMPLES-PER-SECOND 30
:FRAME-RANGE 1-3535
:FULLY-SPECIFIED
:DEGREES
1547
root  33.3173 37.3125 -38.1839 172.194 -61.826 -171.24
RightUpLeg  -20.5051 -6.54766 -9.19201
RightLeg  29.7703 2.26257 1.1539
RightFoot  -8.43199 -0.505629 17.5106
RightToes  1.22775e-009 1.2921e-014 -6.02303e-014
Spine  11.5595 -0.603724 9.70414
Spine1  1.65051 1.35046 -2.57238
HEad  -15.6397 32.3398 -16.6709
LeftShoulder1  1.3296 0.121269 -33.2469
LeftArm  -1.55766 7.96346 -35.9799
LeftForeArm  35.2964 -65.1938 -21.1099
LeftHand  0.0821859 -0.887599 -1.43971
RightShoulder  4.53961 4.75145 48.2027
RightArm  4.35008 -7.34922 8.21096
RightForeArm  14.5948 0.0739484 16.5153
RightHand  0.363804 5.93606 3.39021
LeftUpLeg  -9.92498 -4.26555 4.99098
LeftLeg  53.4123 -0.623471 -0.427104
LeftFoot  -16.1667 -0.331396 -10.1383
LeftToes  2.52163e-011 5.65494e-011 -1.09494e-012
1548
root  32.9789 37.2732 -39.0708 171.705 -65.1211 -169.888
RightUpLeg  -20.3802 -9.15728 -8.36908
RightLeg  32.2131 1.74446 0.926703
RightFoot  -11.0917 -0.112985 16.9384
RightToes  1.22775e-009 1.2921e-014 -6.02303e-014
Spine  11.6292 -0.680853 10.0192
Spine1  1.59276 1.05818 -1.22619
HEad  -15.6898 30.7285 -16.4345
LeftShoulder1  1.38685 -0.0246239 -33.2463
LeftArm  -1.62407 7.45413 -37.194
LeftForeArm  28.2294 -57.9244 -15.5236
LeftHand  0.14757 -2.22232 -2.07335
RightShoulder  5.53855 6.58171 48.1215
RightArm  -3.90568 -4.71518 7.13226
RightForeArm  17.6452 -0.761628 15.3347
RightHand  0.316344 5.93886 2.90425
LeftUpLeg  -16.0924 -0.549693 5.59876
LeftLeg  59.9586 1.54278 3.4541
LeftFoot  -9.08715 0.163009 -5.51585
LeftToes  2.52163e-011 5.65494e-011 -1.09494e-012
1549
root  32.5431 37.5944 -39.8446 173.522 -67.6533 -171.262
RightUpLeg  -18.7342 -11.607 -8.71615
RightLeg  31.4728 1.86615 0.976896
RightFoot  -11.9281 0.00338466 16.4707
RightToes  1.22775e-009 1.2921e-014 -6.02303e-014
Spine  12.1393 -0.678294 9.75677
Spine1  1.09483 0.998581 -1.5252
HEad  -15.8434 29.3626 -16.3475
LeftShoulder1  1.44252 -0.12722 -33.6667
LeftArm  -2.64627 8.19963 -36.0925
LeftForeArm  20.0266 -54.0626 -13.9098
LeftHand  0.443542 -3.1202 -5.8255
RightShoulder  6.0986 7.75551 47.448
RightArm  -7.75491 -1.85895 6.6122
RightForeArm  15.5975 2.26436 14.3391
RightHand  0.243015 5.64974 2.22806
LeftUpLeg  -20.5563 5.01932 3.96626
LeftLeg  62.3868 1.76229 4.27634
LeftFoot  -9.56312 0.151529 -6.06999
LeftToes  2.52163e-011 5.65494e-011 -1.09494e-012
1550
root  32.0537 38.0041 -40.5049 176.039 -69.9798 -173.129
RightUpLeg  -16.8446 -14.1066 -9.16679
RightLeg  29.5515 1.99633 0.975387
RightFoot  -11.8993 -0.00203611 16.1776
RightToes  1.22775e-009 1.2921e-014 -6.02303e-014
Spine  12.5991 -0.519413 9.40075
Spine1  0.215898 1.0132 -1.73792
HEad  -15.7629 28.1362 -16.3091
LeftShoulder1  1.46719 -0.159306 -33.9889
LeftArm  -4.99954 10.048 -34.4056
LeftForeArm  14.1775 -54.0048 -14.3938
LeftHand  0.389509 -2.08389 -5.88982
RightShoulder  6.09864 8.11391 45.9481
RightArm  -4.5455 0.274799 6.8066
RightForeArm  8.83065 9.84919 12.3918
RightHand  0.167037 5.38146 1.48232
LeftUpLeg  -24.4176 10.791 1.5456
LeftLeg  61.564 0.175907 0.948436
LeftFoot  -9.95529 0.181323 -10.0508
LeftToes  2.52163e-011 5.65494e-011 -1.09494e-012
1551
root  31.5121 38.4348 -41.1033 178.508 -72.4829 -174.832
RightUpLeg  -14.6892 -15.8034 -9.63407
RightLeg  27.1169 1.6619 0.683872
RightFoot  -11.3943 -0.070038 16.8634
RightToes  1.22775e-009 1.2921e-014 -6.02303e-014
Spine  12.7837 -0.269747 9.02309
Spine1  -0.617303 1.08309 -1.94584
HEad  -15.7102 26.2795 -16.2488
LeftShoulder1  1.40425 -0.0278244 -33.6992
LeftArm  -9.39683 11.1009 -32.5295
LeftForeArm  12.9035 -55.8832 -15.6516
LeftHand  0.486362 -1.91485 -7.58137
RightShoulder  5.72791 7.77296 44.4044
RightArm  6.66315 1.56958 7.0973
RightForeArm  -4.1726 20.5545 6.36918
RightHand  0.113205 5.28987 0.916315
LeftUpLeg  -27.9869 15.5154 -1.04912
LeftLeg  58.8495 -1.45692 -2.06256
LeftFoot  -9.99566 0.189347 -11.011
LeftToes  2.52163e-011 5.65494e-011 -1.09494e-012
1552
root  30.9405 38.8057 -41.6437 -178.697 -75.6496 -177.057
RightUpLeg  -12.3286 -16.534 -10.4188
RightLeg  25.1214 0.907429 0.229924
RightFoot  -10.8207 -0.157677 18.264
RightToes  1.22775e-009 1.2921e-014 -6.02303e-014
Spine  12.6683 -0.0904052 8.32236
Spine1  -1.06177 0.962088 -1.55072
HEad  -15.4902 24.0194 -16.2926
LeftShoulder1  1.32765 0.0809839 -32.7308
LeftArm  -13.7758 9.50099 -29.8733
LeftForeArm  13.1638 -57.3282 -16.6001
LeftHand  0.480986 -1.77162 -7.66013
RightShoulder  5.37629 7.40422 43.0197
RightArm  0.816769 2.22183 5.81158
RightForeArm  0.842939 29.0838 6.26826
RightHand  0.0924121 5.10362 0.71418
LeftUpLeg  -31.0844 18.4366 -3.44869
LeftLeg  54.7162 -1.52566 -1.83144
LeftFoot  -10.2716 0.165552 -11.1327
LeftToes  2.52163e-011 5.65494e-011 -1.09494e-012
1553
root  30.3716 39.1056 -42.1643 -173.471 -78.8504 177.858
RightUpLeg  -9.34602 -15.4026 -11.6477
RightLeg  22.9809 -0.542542 -0.475691
RightFoot  -10.8731 -0.157836 20.2036
RightToes  1.22775e-009 1.2921e-014 -6.02303e-014
Spine  12.736 0.0831533 6.68163
Spine1  -1.29617 0.73664 -0.761717
HEad  -15.1406 22.2401 -16.2097
LeftShoulder1  1.28138 0.0588586 -31.1369
LeftArm  -18.4658 5.78071 -26.5454
LeftForeArm  12.7839 -57.8907 -17.0408
LeftHand  0.4163 -1.3757 -7.04037
RightShoulder  5.31891 7.55573 41.9073
RightArm  -5.06133 2.61278 4.51746
RightForeArm  5.67662 36.7045 8.02789
RightHand  0.0904479 4.92219 0.71585
LeftUpLeg  -33.3409 20.4376 -5.7297
LeftLeg  49.1962 0.144231 0.616366
LeftFoot  -10.2987 0.161692 -10.9815
LeftToes  2.52163e-011 5.65494e-011 -1.09494e-012
1554
root  29.797 39.2956 -42.6505 -165.417 -81.4313 170.014
RightUpLeg  -6.4456 -12.9952 -12.6387
RightLeg  20.6796 -1.62795 -0.882366
RightFoot  -11.5019 -0.0489917 21.0554
RightToes  1.22775e-009 1.2921e-014 -6.02303e-014
Spine  12.855 0.213426 4.84851
Spine1  -1.5573 0.547736 -0.305524
HEad  -14.923 21.1726 -16.0777
LeftShoulder1  1.20227 0.0844239 -29.0745
LeftArm  -23.9764 1.20139 -22.7547
LeftForeArm  12.4812 -58.1688 -17.2762
LeftHand  0.348337 -0.964123 -6.29925
RightShoulder  5.53606 8.21682 41.096
RightArm  -9.25918 3.35979 3.96336
RightForeArm  8.53837 42.6821 9.76704
RightHand  0.123777 4.79919 1.11145
LeftUpLeg  -35.1128 22.0529 -7.53852
LeftLeg  42.6658 1.51952 1.89438
LeftFoot  -9.79842 0.202993 -10.7026
LeftToes  2.52163e-011 5.65494e-011 -1.09494e-012
1555
root  29.1827 39.3698 -43.0766 -155.127 -83.4147 160.247
RightUpLeg  -3.41965 -11.6537 -13.0594
RightLeg  17.4021 -2.17612 -0.983921
RightFoot  -12.7409 0.171859 20.9938
RightToes  1.22775e-009 1.2921e-014 -6.02303e-014
Spine  12.2449 0.439496 3.16539
Spine1  -1.33034 0.480398 0.186105
HEad  -14.7968 20.2275 -15.8583
LeftShoulder1  1.15297 0.0455615 -27.2082
LeftArm  -29.5171 -3.87477 -18.2773
LeftForeArm  12.3343 -58.3105 -17.3971
LeftHand  0.284184 -0.593599 -5.48497
RightShoulder  5.84036 9.00979 40.5609
RightArm  -12.5634 4.67925 3.93926
RightForeArm  10.7791 47.4431 11.4477
RightHand  0.143476 4.62066 1.37086
LeftUpLeg  -36.6642 23.1997 -8.89665
LeftLeg  35.3351 2.23486 2.06455
LeftFoot  -8.95252 0.274214 -10.5627
LeftToes  2.52163e-011 5.65494e-011 -1.09494e-012
